<?xml version="1.0" encoding="UTF-8" standalone="no"?>
<!-- Created with Inkscape (http://www.inkscape.org/) -->

<svg
   width="1000"
   height="1000"
   viewBox="0 0 1000 1000"
   version="1.1"
   id="svg1"
   inkscape:version="1.4.2 (ebf0e940d0, 2025-05-08)"
   sodipodi:docname="qr.svg"
   xmlns:inkscape="http://www.inkscape.org/namespaces/inkscape"
   xmlns:sodipodi="http://sodipodi.sourceforge.net/DTD/sodipodi-0.dtd"
   xmlns="http://www.w3.org/2000/svg"
   xmlns:svg="http://www.w3.org/2000/svg">
  <sodipodi:namedview
     id="namedview1"
     pagecolor="#ffffff"
     bordercolor="#000000"
     borderopacity="1"
     inkscape:showpageshadow="0"
     inkscape:pageopacity="0"
     inkscape:pagecheckerboard="0"
     inkscape:deskcolor="#d1d1d1"
     inkscape:document-units="px"
     inkscape:zoom="0.672"
     inkscape:cx="440.47619"
     inkscape:cy="499.25595"
     inkscape:window-width="1436"
     inkscape:window-height="874"
     inkscape:window-x="0"
     inkscape:window-y="0"
     inkscape:window-maximized="0"
     inkscape:current-layer="svg1" />
  <defs
     id="defs1" />
  <g
     inkscape:label="Layer 1"
     inkscape:groupmode="layer"
     id="layer1" />
  <g
     inkscape:label="QR Code: http://ej.uz/tri"
     id="g18"
     transform="scale(1.7241379)">
    <rect
       x="0"
       y="0"
       width="580"
       height="580"
       style="fill:#ffffff;stroke:none"
       id="rect17" />
    <g
       style="fill:#000000;stroke:none"
       id="g17">
      <path
         d="m 80,80 h 20 v 20 H 80 Z m 20,0 h 20 v 20 h -20 z m 20,0 h 20 v 20 h -20 z m 20,0 h 20 v 20 h -20 z m 20,0 h 20 v 20 h -20 z m 20,0 h 20 v 20 h -20 z m 20,0 h 20 v 20 h -20 z m 40,0 h 20 v 20 h -20 z m 20,0 h 20 v 20 h -20 z m 20,0 h 20 v 20 h -20 z m 80,0 h 20 v 20 h -20 z m 20,0 h 20 v 20 h -20 z m 20,0 h 20 v 20 h -20 z m 20,0 h 20 v 20 h -20 z m 20,0 h 20 v 20 h -20 z m 20,0 h 20 v 20 h -20 z m 20,0 h 20 v 20 H 480 Z M 80,100 h 20 v 20 H 80 Z m 120,0 h 20 v 20 h -20 z m 60,0 h 20 v 20 h -20 z m 100,0 h 20 v 20 h -20 z m 120,0 h 20 v 20 H 480 Z M 80,120 h 20 v 20 H 80 Z m 40,0 h 20 v 20 h -20 z m 20,0 h 20 v 20 h -20 z m 20,0 h 20 v 20 h -20 z m 40,0 h 20 v 20 h -20 z m 40,0 h 20 v 20 h -20 z m 40,0 h 20 v 20 h -20 z m 40,0 h 20 v 20 h -20 z m 40,0 h 20 v 20 h -20 z m 40,0 h 20 v 20 h -20 z m 20,0 h 20 v 20 h -20 z m 20,0 h 20 v 20 h -20 z m 40,0 h 20 v 20 H 480 Z M 80,140 h 20 v 20 H 80 Z m 40,0 h 20 v 20 h -20 z m 20,0 h 20 v 20 h -20 z m 20,0 h 20 v 20 h -20 z m 40,0 h 20 v 20 h -20 z m 40,0 h 20 v 20 h -20 z m 20,0 h 20 v 20 h -20 z m 60,0 h 20 v 20 h -20 z m 40,0 h 20 v 20 h -20 z m 40,0 h 20 v 20 h -20 z m 20,0 h 20 v 20 h -20 z m 20,0 h 20 v 20 h -20 z m 40,0 h 20 v 20 H 480 Z M 80,160 h 20 v 20 H 80 Z m 40,0 h 20 v 20 h -20 z m 20,0 h 20 v 20 h -20 z m 20,0 h 20 v 20 h -20 z m 40,0 h 20 v 20 h -20 z m 40,0 h 20 v 20 h -20 z m 20,0 h 20 v 20 h -20 z m 20,0 h 20 v 20 h -20 z m 40,0 h 20 v 20 h -20 z m 40,0 h 20 v 20 h -20 z m 40,0 h 20 v 20 h -20 z m 20,0 h 20 v 20 h -20 z m 20,0 h 20 v 20 h -20 z m 40,0 h 20 v 20 H 480 Z M 80,180 h 20 v 20 H 80 Z m 120,0 h 20 v 20 h -20 z m 100,0 h 20 v 20 h -20 z m 60,0 h 20 v 20 h -20 z m 120,0 h 20 v 20 H 480 Z M 80,200 h 20 v 20 H 80 Z m 20,0 h 20 v 20 h -20 z m 20,0 h 20 v 20 h -20 z m 20,0 h 20 v 20 h -20 z m 20,0 h 20 v 20 h -20 z m 20,0 h 20 v 20 h -20 z m 20,0 h 20 v 20 h -20 z m 40,0 h 20 v 20 h -20 z m 40,0 h 20 v 20 h -20 z m 40,0 h 20 v 20 h -20 z m 40,0 h 20 v 20 h -20 z m 20,0 h 20 v 20 h -20 z m 20,0 h 20 v 20 h -20 z m 20,0 h 20 v 20 h -20 z m 20,0 h 20 v 20 h -20 z m 20,0 h 20 v 20 h -20 z m 20,0 h 20 v 20 h -20 z m -220,20 h 20 v 20 h -20 z m 20,0 h 20 v 20 h -20 z m 20,0 h 20 v 20 H 300 Z M 80,240 h 20 v 20 H 80 Z m 20,0 h 20 v 20 h -20 z m 20,0 h 20 v 20 h -20 z m 20,0 h 20 v 20 h -20 z m 60,0 h 20 v 20 h -20 z m 40,0 h 20 v 20 h -20 z m 40,0 h 20 v 20 h -20 z m 20,0 h 20 v 20 h -20 z m 40,0 h 20 v 20 h -20 z m 60,0 h 20 v 20 h -20 z m 20,0 h 20 v 20 h -20 z m 20,0 h 20 v 20 h -20 z m 40,0 h 20 v 20 h -20 z m -380,20 h 20 v 20 h -20 z m 20,0 h 20 v 20 h -20 z m 40,0 h 20 v 20 h -20 z m 60,0 h 20 v 20 h -20 z m 60,0 h 20 v 20 h -20 z m 20,0 h 20 v 20 h -20 z m 40,0 h 20 v 20 h -20 z m 40,0 h 20 v 20 h -20 z m 20,0 h 20 v 20 h -20 z m 20,0 h 20 v 20 h -20 z m 20,0 h 20 v 20 h -20 z m 20,0 h 20 v 20 h -20 z m 20,0 h 20 v 20 H 480 Z M 80,280 h 20 v 20 H 80 Z m 60,0 h 20 v 20 h -20 z m 20,0 h 20 v 20 h -20 z m 40,0 h 20 v 20 h -20 z m 60,0 h 20 v 20 h -20 z m 80,0 h 20 v 20 h -20 z m 20,0 h 20 v 20 h -20 z m 20,0 h 20 v 20 h -20 z m 40,0 h 20 v 20 h -20 z m 40,0 h 20 v 20 h -20 z m 20,0 h 20 v 20 H 480 Z M 80,300 h 20 v 20 H 80 Z m 60,0 h 20 v 20 h -20 z m 20,0 h 20 v 20 h -20 z m 60,0 h 20 v 20 h -20 z m 20,0 h 20 v 20 h -20 z m 60,0 h 20 v 20 h -20 z m 20,0 h 20 v 20 h -20 z m 60,0 h 20 v 20 h -20 z m 40,0 h 20 v 20 h -20 z m 40,0 h 20 v 20 H 460 Z M 80,320 h 20 v 20 H 80 Z m 20,0 h 20 v 20 h -20 z m 40,0 h 20 v 20 h -20 z m 60,0 h 20 v 20 h -20 z m 20,0 h 20 v 20 h -20 z m 40,0 h 20 v 20 h -20 z m 20,0 h 20 v 20 h -20 z m 20,0 h 20 v 20 h -20 z m 60,0 h 20 v 20 h -20 z m 40,0 h 20 v 20 h -20 z m 20,0 h 20 v 20 h -20 z m 60,0 h 20 v 20 h -20 z m -240,20 h 20 v 20 h -20 z m 20,0 h 20 v 20 h -20 z m 40,0 h 20 v 20 h -20 z m 20,0 h 20 v 20 h -20 z m 80,0 h 20 v 20 H 400 Z M 80,360 h 20 v 20 H 80 Z m 20,0 h 20 v 20 h -20 z m 20,0 h 20 v 20 h -20 z m 20,0 h 20 v 20 h -20 z m 20,0 h 20 v 20 h -20 z m 20,0 h 20 v 20 h -20 z m 20,0 h 20 v 20 h -20 z m 60,0 h 20 v 20 h -20 z m 80,0 h 20 v 20 h -20 z m 20,0 h 20 v 20 h -20 z m 40,0 h 20 v 20 H 400 Z M 80,380 h 20 v 20 H 80 Z m 120,0 h 20 v 20 h -20 z m 80,0 h 20 v 20 h -20 z m 120,0 h 20 v 20 h -20 z m 20,0 h 20 v 20 h -20 z m 20,0 h 20 v 20 H 440 Z M 80,400 h 20 v 20 H 80 Z m 40,0 h 20 v 20 h -20 z m 20,0 h 20 v 20 h -20 z m 20,0 h 20 v 20 h -20 z m 40,0 h 20 v 20 h -20 z m 60,0 h 20 v 20 h -20 z m 20,0 h 20 v 20 h -20 z m 20,0 h 20 v 20 h -20 z m 20,0 h 20 v 20 h -20 z m 60,0 h 20 v 20 h -20 z m 20,0 h 20 v 20 h -20 z m 40,0 h 20 v 20 h -20 z m 40,0 h 20 v 20 H 480 Z M 80,420 h 20 v 20 H 80 Z m 40,0 h 20 v 20 h -20 z m 20,0 h 20 v 20 h -20 z m 20,0 h 20 v 20 h -20 z m 40,0 h 20 v 20 h -20 z m 40,0 h 20 v 20 h -20 z m 40,0 h 20 v 20 h -20 z m 20,0 h 20 v 20 h -20 z m 20,0 h 20 v 20 h -20 z m 40,0 h 20 v 20 H 360 Z M 80,440 h 20 v 20 H 80 Z m 40,0 h 20 v 20 h -20 z m 20,0 h 20 v 20 h -20 z m 20,0 h 20 v 20 h -20 z m 40,0 h 20 v 20 h -20 z m 40,0 h 20 v 20 h -20 z m 20,0 h 20 v 20 h -20 z m 20,0 h 20 v 20 h -20 z m 20,0 h 20 v 20 h -20 z m 20,0 h 20 v 20 h -20 z m 40,0 h 20 v 20 h -20 z m 20,0 h 20 v 20 h -20 z m 60,0 h 20 v 20 H 440 Z M 80,460 h 20 v 20 H 80 Z m 120,0 h 20 v 20 h -20 z m 40,0 h 20 v 20 h -20 z m 20,0 h 20 v 20 h -20 z m 80,0 h 20 v 20 h -20 z m 20,0 h 20 v 20 h -20 z m 40,0 h 20 v 20 h -20 z m 20,0 h 20 v 20 h -20 z m 60,0 h 20 v 20 H 480 Z M 80,480 h 20 v 20 H 80 Z m 20,0 h 20 v 20 h -20 z m 20,0 h 20 v 20 h -20 z m 20,0 h 20 v 20 h -20 z m 20,0 h 20 v 20 h -20 z m 20,0 h 20 v 20 h -20 z m 20,0 h 20 v 20 h -20 z m 40,0 h 20 v 20 h -20 z m 40,0 h 20 v 20 h -20 z m 20,0 h 20 v 20 h -20 z m 60,0 h 20 v 20 h -20 z m 60,0 h 20 v 20 h -20 z m 20,0 h 20 v 20 h -20 z"
         id="path17" />
    </g>
  </g>
</svg>
